{
	"asset":{
		"generator":"Khronos glTF Blender I/O v4.2.69",
		"version":"2.0"
	},
	"extensionsUsed":[
		"KHR_materials_specular"
	],
	"scene":0,
	"scenes":[
		{
			"name":"Scene",
			"nodes":[
				0
			]
		}
	],
	"nodes":[
		{
			"mesh":0,
			"name":"Two of Spades",
			"rotation":[
				0.5000000596046448,
				0.4999999403953552,
				-0.5000000596046448,
				0.4999999403953552
			],
			"scale":[
				0.028504615649580956,
				0.012492906302213669,
				0.02539999969303608
			]
		}
	],
	"animations":[
		{
			"channels":[
				{
					"sampler":0,
					"target":{
						"node":0,
						"path":"translation"
					}
				}
			],
			"name":"Two of Spades|Take 001|BaseLayer.001",
			"samplers":[
				{
					"input":12,
					"interpolation":"STEP",
					"output":13
				}
			]
		}
	],
	"materials":[
		{
			"doubleSided":true,
			"extensions":{
				"KHR_materials_specular":{
					"specularFactor":0
				}
			},
			"name":"01 - Default.001",
			"pbrMetallicRoughness":{
				"baseColorTexture":{
					"index":0
				},
				"roughnessFactor":0.858578622341156
			}
		},
		{
			"doubleSided":true,
			"extensions":{
				"KHR_materials_specular":{
					"specularFactor":0
				}
			},
			"name":"07 - Default.001",
			"pbrMetallicRoughness":{
				"baseColorTexture":{
					"index":1
				},
				"roughnessFactor":0.858578622341156
			}
		},
		{
			"doubleSided":true,
			"extensions":{
				"KHR_materials_specular":{
					"specularFactor":0
				}
			},
			"name":"03 - Default.001",
			"pbrMetallicRoughness":{
				"baseColorTexture":{
					"index":2
				},
				"roughnessFactor":0.858578622341156
			}
		}
	],
	"meshes":[
		{
			"name":"Malla.002",
			"primitives":[
				{
					"attributes":{
						"POSITION":0,
						"NORMAL":1,
						"TEXCOORD_0":2
					},
					"indices":3,
					"material":0
				},
				{
					"attributes":{
						"POSITION":4,
						"NORMAL":5,
						"TEXCOORD_0":6
					},
					"indices":7,
					"material":1
				},
				{
					"attributes":{
						"POSITION":8,
						"NORMAL":9,
						"TEXCOORD_0":10
					},
					"indices":11,
					"material":2
				}
			]
		}
	],
	"textures":[
		{
			"sampler":0,
			"source":0
		},
		{
			"sampler":0,
			"source":1
		},
		{
			"sampler":0,
			"source":2
		}
	],
	"images":[
		{
			"mimeType":"image/jpeg",
			"name":"Card Back",
			"uri":"Card%20Back.jpg"
		},
		{
			"mimeType":"image/jpeg",
			"name":"Card Side",
			"uri":"Card%20Side.jpg"
		},
		{
			"mimeType":"image/jpeg",
			"name":"Two of Spades",
			"uri":"Two%20of%20Spades.jpg"
		}
	],
	"accessors":[
		{
			"bufferView":0,
			"componentType":5126,
			"count":16,
			"max":[
				25,
				0,
				50
			],
			"min":[
				-25,
				0,
				-50
			],
			"type":"VEC3"
		},
		{
			"bufferView":1,
			"componentType":5126,
			"count":16,
			"type":"VEC3"
		},
		{
			"bufferView":2,
			"componentType":5126,
			"count":16,
			"type":"VEC2"
		},
		{
			"bufferView":3,
			"componentType":5123,
			"count":42,
			"type":"SCALAR"
		},
		{
			"bufferView":4,
			"componentType":5126,
			"count":56,
			"max":[
				25,
				1,
				50
			],
			"min":[
				-25,
				0,
				-50
			],
			"type":"VEC3"
		},
		{
			"bufferView":5,
			"componentType":5126,
			"count":56,
			"type":"VEC3"
		},
		{
			"bufferView":6,
			"componentType":5126,
			"count":56,
			"type":"VEC2"
		},
		{
			"bufferView":7,
			"componentType":5123,
			"count":96,
			"type":"SCALAR"
		},
		{
			"bufferView":8,
			"componentType":5126,
			"count":16,
			"max":[
				25,
				1,
				50
			],
			"min":[
				-25,
				1,
				-50
			],
			"type":"VEC3"
		},
		{
			"bufferView":9,
			"componentType":5126,
			"count":16,
			"type":"VEC3"
		},
		{
			"bufferView":10,
			"componentType":5126,
			"count":16,
			"type":"VEC2"
		},
		{
			"bufferView":11,
			"componentType":5123,
			"count":42,
			"type":"SCALAR"
		},
		{
			"bufferView":12,
			"componentType":5126,
			"count":2,
			"max":[
				8.125
			],
			"min":[
				0
			],
			"type":"SCALAR"
		},
		{
			"bufferView":13,
			"componentType":5126,
			"count":2,
			"type":"VEC3"
		}
	],
	"bufferViews":[
		{
			"buffer":0,
			"byteLength":192,
			"byteOffset":0,
			"target":34962
		},
		{
			"buffer":0,
			"byteLength":192,
			"byteOffset":192,
			"target":34962
		},
		{
			"buffer":0,
			"byteLength":128,
			"byteOffset":384,
			"target":34962
		},
		{
			"buffer":0,
			"byteLength":84,
			"byteOffset":512,
			"target":34963
		},
		{
			"buffer":0,
			"byteLength":672,
			"byteOffset":596,
			"target":34962
		},
		{
			"buffer":0,
			"byteLength":672,
			"byteOffset":1268,
			"target":34962
		},
		{
			"buffer":0,
			"byteLength":448,
			"byteOffset":1940,
			"target":34962
		},
		{
			"buffer":0,
			"byteLength":192,
			"byteOffset":2388,
			"target":34963
		},
		{
			"buffer":0,
			"byteLength":192,
			"byteOffset":2580,
			"target":34962
		},
		{
			"buffer":0,
			"byteLength":192,
			"byteOffset":2772,
			"target":34962
		},
		{
			"buffer":0,
			"byteLength":128,
			"byteOffset":2964,
			"target":34962
		},
		{
			"buffer":0,
			"byteLength":84,
			"byteOffset":3092,
			"target":34963
		},
		{
			"buffer":0,
			"byteLength":8,
			"byteOffset":3176
		},
		{
			"buffer":0,
			"byteLength":24,
			"byteOffset":3184
		}
	],
	"samplers":[
		{
			"magFilter":9729,
			"minFilter":9987
		}
	],
	"buffers":[
		{
			"byteLength":3208,
			"uri":"scene.bin"
		}
	]
}
